<?xml version="1.0" encoding="UTF-8" standalone="no"?>
<!-- Created with Inkscape (http://www.inkscape.org/) -->

<svg
   width="32"
   height="31.999998"
   viewBox="0 0 8.4666667 8.4666661"
   version="1.1"
   id="svg1"
   xml:space="preserve"
   inkscape:version="1.3.2 (091e20e, 2023-11-25, custom)"
   sodipodi:docname="favicon.svg"
   xmlns:inkscape="http://www.inkscape.org/namespaces/inkscape"
   xmlns:sodipodi="http://sodipodi.sourceforge.net/DTD/sodipodi-0.dtd"
   xmlns="http://www.w3.org/2000/svg"
   xmlns:svg="http://www.w3.org/2000/svg"><sodipodi:namedview
     id="namedview1"
     pagecolor="#ffffff"
     bordercolor="#000000"
     borderopacity="0.25"
     inkscape:showpageshadow="2"
     inkscape:pageopacity="0.0"
     inkscape:pagecheckerboard="0"
     inkscape:deskcolor="#d1d1d1"
     inkscape:document-units="mm"
     showguides="true"
     inkscape:zoom="11.313709"
     inkscape:cx="4.2426407"
     inkscape:cy="11.22532"
     inkscape:window-width="1440"
     inkscape:window-height="878"
     inkscape:window-x="-6"
     inkscape:window-y="-6"
     inkscape:window-maximized="1"
     inkscape:current-layer="layer1" /><defs
     id="defs1" /><g
     inkscape:label="Layer 1"
     inkscape:groupmode="layer"
     id="layer1"
     transform="translate(-28.159765,-82.487906)"><rect
       style="fill:#000000;stroke-width:0.264583"
       id="rect1"
       width="8.4666662"
       height="8.4666662"
       x="28.159765"
       y="82.487907" /><path
       style="fill:#ffffff;stroke-width:0.0399061"
       d="m 28.159765,87.858119 1.495423,-1.132041 0.83868,0.321284 -0.31506,-0.304033 0.656744,-0.778412 0.232966,-0.02371 0.64565,-0.93582 0.266248,0.39891 -0.186373,0.401066 h 0.38384 l -0.419341,0.280313 0.725526,0.0043 -0.301749,0.463598 -0.297309,0.01294 -0.676712,0.556316 1.371175,-0.457129 0.940742,-0.890536 0.454839,0.66844 -0.195249,0.226408 c 0.0056,0.0024 0.747709,-0.131528 0.747709,-0.131528 l -0.177499,0.2415 0.705557,0.707256 -0.15975,-0.610223 1.73061,1.10401 -1.102708,-1.112636 -1.096053,-1.110475 -0.06656,0.03666 -0.186374,0.06037 -0.61015,-0.478692 -0.512527,0.321285 -1.309051,-1.073822 -0.829802,0.871133 -0.09714,0.09883 -0.118456,-0.05337 -0.793852,0.904913 -0.1663,-0.15552 z"
       id="path1"
       sodipodi:nodetypes="ccccccccccccccccccccccccccccccccccccc" /></g></svg>
