<?xml version="1.0" encoding="UTF-8" standalone="no"?>
<!-- Created with Inkscape (http://www.inkscape.org/) -->

<svg
   width="68.847252mm"
   height="46.492886mm"
   viewBox="0 0 68.847252 46.492885"
   version="1.1"
   id="svg1"
   xml:space="preserve"
   inkscape:version="1.3.2 (091e20e, 2023-11-25, custom)"
   sodipodi:docname="infotreklogo.svg"
   xmlns:inkscape="http://www.inkscape.org/namespaces/inkscape"
   xmlns:sodipodi="http://sodipodi.sourceforge.net/DTD/sodipodi-0.dtd"
   xmlns="http://www.w3.org/2000/svg"
   xmlns:svg="http://www.w3.org/2000/svg"><sodipodi:namedview
     id="namedview1"
     pagecolor="#ffffff"
     bordercolor="#000000"
     borderopacity="0.25"
     inkscape:showpageshadow="2"
     inkscape:pageopacity="0.0"
     inkscape:pagecheckerboard="0"
     inkscape:deskcolor="#d1d1d1"
     inkscape:document-units="mm"
     showguides="true"
     inkscape:zoom="0.5"
     inkscape:cx="264"
     inkscape:cy="20"
     inkscape:window-width="1440"
     inkscape:window-height="878"
     inkscape:window-x="-6"
     inkscape:window-y="-6"
     inkscape:window-maximized="1"
     inkscape:current-layer="layer1" /><defs
     id="defs1" /><g
     inkscape:label="Layer 1"
     inkscape:groupmode="layer"
     id="layer1"
     transform="translate(-28.159765,-82.487906)"><g
       id="g62"
       transform="matrix(1.0133954,0,0,1.0133954,-0.37721371,-1.1049657)"><path
         d="m 92.622015,114.9878 c 0,0.61859 0.04716,0.99985 0.356454,1.30914 0.185577,0.18558 0.34099,0.28664 0.681213,0.28664 0.278365,0 0.557799,-0.12372 0.805239,-0.37116 0.371147,-0.37115 0.548459,-0.91533 0.548459,-1.78135 0,-0.80417 -0.253872,-1.10458 -0.563159,-1.41387 -0.03901,-0.039 -1.236586,-0.69558 -1.796512,0.37344 h -1.305468 v -4.90302 h 4.732193 l 0.01654,1.06013 h -3.451068 l -0.02021,2.51125 c 0.402082,-0.46395 0.887613,-0.36519 1.506202,-0.36519 0.463939,0 0.86602,0.17011 1.206247,0.51034 0.494867,0.49487 0.742297,1.23718 0.742297,2.22692 0,1.0516 -0.29383,1.87123 -0.881484,2.45889 -0.43301,0.43301 -0.958811,0.64951 -1.577396,0.64951 -0.649518,0 -1.159853,-0.18557 -1.531006,-0.55672 -0.463942,-0.46395 -0.711378,-1.12893 -0.742307,-1.99495 z"
         id="text61"
         style="font-size:11.8769px;font-family:'MS Gothic';-inkscape-font-specification:'MS Gothic';stroke-width:0.989738"
         aria-label="5"
         sodipodi:nodetypes="cssssscccccccsssssscc" /><g
         id="g61"><path
           style="fill:#000000;stroke-width:0.264583"
           d="m 34.497224,104.24082 9.774314,-7.613525 5.481741,2.16079 -2.059279,-2.04477 4.292579,-5.235202 1.522699,-0.15952 4.22007,-6.293847 1.74024,2.682862 -1.21817,2.697363 h 2.50884 l -2.74087,1.885248 4.74214,0.029 -1.97227,3.11792 -1.94326,0.087 -4.42309,3.7415 8.96221,-3.07441 6.14882,-5.98929 2.9729,4.49559 -1.27617,1.5227 c 0.0365,0.016 4.88714,-0.88459 4.88714,-0.88459 l -1.16016,1.62421 4.61162,4.756641 -1.04414,-4.104051 11.31153,7.425011 -7.20747,-7.483021 -7.16397,-7.468484 -0.43506,0.246533 -1.21816,0.406052 -3.98804,-3.219434 -3.34995,2.160791 -8.55615,-7.221974 -5.42373,5.858791 -0.634921,0.664711 -0.77421,-0.358905 -5.188741,6.085989 -1.08697,-1.04595 z"
           id="path1"
           sodipodi:nodetypes="ccccccccccccccccccccccccccccccccccccc" /><g
           id="g60"><path
             style="fill:#000000;stroke-width:0.264583"
             d="m 28.159767,117.5443 v -9.05666 h 1.429213 v 9.05666 z"
             id="path28" /><path
             style="fill:#000000;stroke-width:0.264583"
             d="m 32.482862,117.5443 v -9.05666 h 1.289841 0.396878 l 1.521352,5.35161 v -5.35161 h 1.190627 v 9.05666 h -1.190627 l -1.91823,-6.49971 v 6.49971 z"
             id="path29" /><path
             style="fill:#000000;stroke-width:0.264583"
             d="m 39.841584,117.5443 v -9.05666 h 3.671096 l 0.01654,1.15135 h -2.348179 v 2.76159 h 1.78594 l 0.0049,1.19732 -1.790891,0.0175 v 3.92886 z"
             id="path30" /><path
             style="fill:#000000;stroke-width:0.264583"
             d="m 54.211768,117.5443 v -7.90531 h -1.52135 l 0.008,-1.15135 h 4.23333 l 0.008,1.15135 h -1.27328 v 7.90531 z"
             id="path31" /><path
             id="path33"
             style="fill:#000000;stroke-width:0.264583"
             d="m 59.519968,108.48764 v 9.05682 h 1.45521 v -3.6804 l 1.07384,-0.006 0.38137,0.44183 v 3.24477 h 1.47175 c 0,0 -1e-5,-2.75064 0,-3.58531 10e-6,-0.86153 -0.94258,-0.8475 -0.94258,-0.8475 l 0.94258,-1.35599 c 0,0 10e-6,-0.96702 0,-2.11666 -1e-5,-1.15156 -1.47175,-1.15156 -1.47175,-1.15156 z m 1.45521,1.15136 h 1.08572 l 0.36949,0.37517 v 2.19263 l -0.28784,0.26303 -1.16737,-0.003 z"
             sodipodi:nodetypes="ccccccccsccsccccccccc" /><path
             style="fill:#000000;stroke-width:0.264583"
             d="m 66.647188,108.48764 v 9.05666 h 3.9026 v -1.35687 h -2.4474 v -2.61292 l 1.88047,0.006 -0.0117,-1.39147 h -1.86878 v -2.5499 h 2.44741 v -1.15135 z"
             id="path34" /><path
             style="fill:#000000;stroke-width:0.264583"
             d="m 73.245228,108.48764 v 9.05666 h 1.48828 v -3.93471 l 1.75068,3.93471 h 1.59025 l -2.10475,-4.92862 2.03459,-4.12804 h -1.49671 l -1.77406,3.62524 v -3.62524 z"
             id="path35" /><path
             style="fill:#000000;stroke-width:0.264583"
             d="m 80.436428,108.48764 0.0117,1.15135 h 0.45603 c 0,0 0.16955,0.42761 0.0877,0.66731 -0.0819,0.23971 -0.39172,0.61974 -0.39172,0.61974 l 0.73081,-0.0117 0.49111,-1.27535 -0.0117,-1.15135 z"
             id="path36" /><path
             style="fill:#000000;stroke-width:0.264583"
             d="m 84.622318,111.47561 v -1.83662 c 0,0 0.0335,-1.15135 1.50481,-1.15135 h 1.95655 c 0,0 0.91668,5e-5 0.90622,1.15135 l -0.01169,1.28705 c 0,0 -0.488966,1.32864 -0.847746,1.84165 -0.47683,0.68182 -2.003321,2.70109 -2.003321,2.70109 l -0.0058,0.82973 h 2.558744 l 0.02679,1.24579 h -4.08451 v -1.35687 c 0,0 0.204254,-0.78489 0.551484,-1.45461 0.34726,-0.66973 1.957925,-2.51 1.957925,-2.51 l 0.520892,-0.88057 0.186034,-1.00459 -0.112473,-0.72206 -1.685864,0.0193 -0.01654,1.83554 z"
             id="path37"
             sodipodi:nodetypes="ccscscsccccccsccccccc" /><path
             id="path39"
             style="fill:#000000;stroke-width:0.264583"
             d="m 46.894904,108.48764 c 0,0 -0.88522,0 -0.885218,1.15136 v 6.54843 c 0,0 -2e-6,1.35687 1.282609,1.35703 h 1.77767 c 1.338417,-1.6e-4 1.338419,-1.35703 1.338419,-1.35703 V 109.639 c -2e-6,-1.15136 -0.969966,-1.15136 -0.969966,-1.15136 h -2.543514 m 2.052167,1.22784 -9.6e-5,6.47195 c 0,0 -0.0071,0.31757 -0.75405,0.31763 -0.746946,6e-5 -0.754385,-0.31763 -0.754385,-0.31763 l 1.31e-4,-6.44921 0.768555,-0.25632"
             sodipodi:nodetypes="ccccccccccczccc" /><path
             id="path54"
             style="fill:#000000;stroke-width:0.264583"
             d="m 56.526878,123.03404 -0.69247,4.31499 v 1.01699 l 0.69246,1.8e-4 0.008,-1.01717 1.19889,-1.2e-4 0.008,1.01711 h 0.82837 v -1.01699 l -0.82011,-4.31499 z m 0.60771,0.91726 0.49196,2.77788 h -0.97565 z"
             sodipodi:nodetypes="ccccccccccccccc" /><path
             style="fill:#000000;stroke-width:0.264583"
             d="m 60.920748,128.3662 h 1.0056 c 0.63142,0 0.63142,-0.62805 0.63142,-0.62805 v -1.23197 l -0.63142,0.008 v 0.83446 c 0,0 -0.1204,0.44126 -0.43027,0.44711 -0.4268,0 -0.57533,-0.44711 -0.57533,-0.44711 v -3.31493 c 0,0 0.15013,-0.40756 0.50092,-0.41341 0.36833,0 0.50468,0.37207 0.50468,0.37207 v 0.87643 h 0.63142 v -1.18236 c 0,-0.65226 -0.63142,-0.65253 -0.63142,-0.65253 h -1.0056 c 0,0 -0.61973,2.7e-4 -0.61973,0.59465 v 4.22507 c 0,0.51257 0.61973,0.51257 0.61973,0.51257 z"
             id="path55"
             sodipodi:nodetypes="ccccccccccccccccccc" /><path
             style="fill:#000000;stroke-width:0.264583"
             d="m 64.557288,128.3662 v -5.33202 h 1.02898 l 0.73324,3.58338 0.78686,-3.58338 h 1.0056 v 5.33202 l -0.79513,-0.0175 0.0175,-3.75346 -0.54374,2.49646 1e-5,1.27454 h -0.93544 l 10e-4,-1.2643 -0.59194,-2.47747 0.006,3.74177 z"
             id="path56"
             sodipodi:nodetypes="cccccccccccccccc" /></g></g></g></g></svg>
